<?xml version="1.0" standalone="no"?>
<!DOCTYPE svg PUBLIC "-//W3C//DTD SVG 20010904//EN"
 "http://www.w3.org/TR/2001/REC-SVG-20010904/DTD/svg10.dtd">
<svg version="1.0" xmlns="http://www.w3.org/2000/svg"
 width="21.000000pt" height="21.000000pt" viewBox="0 0 21.000000 21.000000"
 preserveAspectRatio="xMidYMid meet">

<g transform="translate(0.000000,21.000000) scale(0.100000,-0.100000)"
fill="#000000" stroke="none">
<path d="M29 171 c-40 -41 -40 -91 0 -132 62 -62 171 -20 171 66 0 86 -109
128 -171 66z m102 9 c22 0 49 -42 49 -75 0 -47 -29 -75 -77 -75 -48 0 -83 32
-83 75 0 43 53 91 88 79 8 -2 18 -4 23 -4z" fill="#fff"/>
<path d="M80 105 c0 -40 5 -42 38 -17 l24 18 -26 17 c-34 23 -36 22 -36 -18z" fill="#fff"/>
</g>
</svg>
